<svg data-v-a995c326="" xmlns="http://www.w3.org/2000/svg" width="10" height="10" viewBox="0 0 10 10" svg-inline="" src="@/assets/closevideo.svg" role="presentation" focusable="false" class="close"><path data-v-a995c326="" fill="#FFF" fill-rule="evenodd" d="M10 .626A.627.627 0 009.815.18a.647.647 0 00-.894 0L5 4.102 1.078.18a.646.646 0 00-.894 0 .628.628 0 000 .894l3.921 3.923-3.92 3.922a.634.634 0 000 .895c.237.238.654.24.893 0L5 5.89l3.921 3.924a.629.629 0 00.894 0 .634.634 0 000-.895l-3.92-3.923 3.92-3.924A.63.63 0 0010 .626z"></path></svg>