<svg data-v-2db9ff64="" xmlns="http://www.w3.org/2000/svg" width="134" height="26" viewBox="0 0 134 26" svg-inline="" src="../assets/logo.svg" role="presentation" focusable="false" class="logo"><g data-v-2db9ff64="" fill="none" fill-rule="evenodd"><path data-v-2db9ff64="" fill="#2CD79A" d="M95.368 19.549c-3.02 0-5.379-2.104-5.379-5.48 0-3.17 2.359-5.48 5.091-5.48 1.496 0 2.935.385 4.084 1.451l.72-1.244c-1.237-1.214-3.02-1.658-5.034-1.658-3.681 0-6.442 3.05-6.442 6.93 0 4.207 2.847 6.932 6.845 6.932 1.898 0 3.796-.74 4.89-2.162l-.749-1.126c-.892 1.067-2.359 1.837-4.027 1.837zm12.657-12.382c-1.783 0-3.653.889-4.66 2.044V0h-1.495v20.735h1.496V10.662c.833-1.066 2.56-2.044 4.314-2.044 2.876 0 4.256 1.57 4.256 4.77v7.346h1.496V13.15c0-4.176-1.899-5.983-5.408-5.983zm12.254-.03a7.556 7.556 0 00-4.113 1.215l.403 1.274c1.15-.652 2.1-1.037 3.624-1.037 3.22 0 3.394 2.044 3.394 5.214-1.036-.77-2.474-1.008-3.51-1.008-2.79 0-4.918 1.481-4.918 4.147 0 2.429 1.611 3.97 3.998 3.97 2.359 0 3.624-1.097 4.43-2.222v2.044h1.495v-8.265c0-3.377-1.208-5.331-4.803-5.331zm3.308 10.22c-.72.977-1.784 2.103-3.97 2.103-1.61 0-2.875-.948-2.875-2.607 0-1.955 1.783-2.784 3.48-2.784 1.323 0 2.415.355 3.365 1.066v2.222zm9.925 1.392a3.484 3.484 0 01-2.071.71c-2.071 0-2.905-1.421-2.905-4.029V8.855h5.206v-1.45h-5.207V3.702h-1.495v11.966c0 3.407 1.179 5.243 4.055 5.243 1.237 0 2.3-.444 2.905-.948l-.488-1.214zm-48.895-3.04c-1.41 0-2.617.948-2.617 2.519 0 1.747 1.208 2.694 2.617 2.694 1.236 0 2.445-.947 2.445-2.694 0-1.571-1.209-2.52-2.445-2.52z"></path><path data-v-2db9ff64="" fill="#FFF" d="M4.67 11.063c0-.288.377-.577 1.015-.577 1.42 0 2.842.693 3.596 1.213l1.624-3.062c-.87-.751-2.552-1.762-5.481-1.762C2.64 6.875.32 8.319.32 11.12c0 4.738 6.901 3.872 6.901 5.257 0 .376-.348.578-.986.578-1.305 0-3.364-.838-4.176-1.618L0 18.169c.609.925 3.19 2.398 5.945 2.398 3.48 0 5.626-1.762 5.626-4.391 0-4.621-6.901-3.755-6.901-5.113zm16.929-4.188c-1.595 0-2.9.606-3.625 1.328v-.981h-4.35V26h4.35v-5.836c.609.26 1.537.404 2.436.404 4.233 0 7.018-3.091 7.018-7.05 0-3.841-2.32-6.643-5.83-6.643zm-1.595 9.649c-.928 0-1.392-.116-2.03-.492v-3.957c.725-.81 1.42-1.155 2.262-1.155 1.652 0 2.552 1.185 2.552 2.687 0 1.588-.9 2.917-2.784 2.917zm14.719-9.65c-1.827 0-3.799.636-4.843 1.272l1.073 3.149c.812-.318 1.798-.81 3.335-.81 1.159 0 1.885.665 1.798 2.225-.406-.318-1.392-.722-2.552-.722-2.581 0-4.698 1.358-4.698 4.304 0 2.629 1.769 4.103 4.118 4.103 1.42 0 2.784-.462 3.422-1.358v1.185h3.77v-7.83c0-3.524-1.45-5.517-5.423-5.517zm1.363 9.245c-.261.347-.783.663-1.652.663-.725 0-1.247-.346-1.247-.924 0-.636.522-.983 1.247-.983.725 0 1.247.145 1.652.434v.81zm11.448.405c-.58 0-.841-.665-.841-1.445v-3.813h3.624V7.222h-3.624V3.61h-4.35v11.67c0 3.323 1.102 5.287 4.06 5.287 1.943 0 3.509-.722 4.378-1.474l-1.304-3.322c-.464.347-1.015.752-1.943.752zm5.554 3.698h4.35v-13h-4.35v13zM55.35.288c-1.421 0-2.639.924-2.639 2.456 0 1.705 1.218 2.628 2.639 2.628 1.247 0 2.465-.924 2.465-2.628 0-1.532-1.218-2.456-2.465-2.456zm9.993 6.587c-1.827 0-3.799.635-4.843 1.27l1.073 3.15c.812-.318 1.798-.81 3.335-.81 1.159 0 1.885.665 1.798 2.225-.406-.318-1.392-.722-2.552-.722-2.581 0-4.698 1.358-4.698 4.304 0 2.629 1.769 4.103 4.118 4.103 1.42 0 2.784-.462 3.422-1.358v1.185h3.77v-7.83c0-3.524-1.45-5.517-5.423-5.517zm1.363 9.244c-.26.347-.783.663-1.652.663-.725 0-1.247-.346-1.247-.924 0-.636.522-.983 1.247-.983.725 0 1.247.145 1.652.434v.81zM78 16.524c-.435 0-.725-.492-.725-1.676V0h-4.35v16.496c0 2.831 1.217 4.073 3.247 4.073 1.77 0 2.987-.52 3.828-1.213l-.87-3.295c-.406.26-.696.463-1.131.463z"></path></g></svg>