<svg data-v-5c9875d0="" xmlns="http://www.w3.org/2000/svg" width="470" height="90" viewBox="0 0 470 90" svg-inline="" src="../assets/logobig.svg" role="presentation" focusable="false" className="logo">
    <g data-v-5c9875d0="" fill="none" fill-rule="evenodd">
        <path data-v-5c9875d0="" fill="#2CD79A" d="M333.527 66.835c-10.669 0-19-7.19-19-18.735 0-10.836 8.331-18.735 17.984-18.735 5.283 0 10.367 1.316 14.427 4.962l2.54-4.253c-4.369-4.152-10.668-5.671-17.78-5.671-13.006 0-22.76 10.43-22.76 23.697 0 14.38 10.06 23.698 24.182 23.698 6.706 0 13.411-2.532 17.272-7.393l-2.64-3.848c-3.152 3.646-8.334 6.278-14.227 6.278h.002zm44.712-42.331c-6.3 0-12.903 3.038-16.46 6.987V0h-5.283v70.891h5.284V36.454c2.946-3.646 9.042-6.988 15.24-6.988 10.16 0 15.038 5.367 15.038 16.305v25.116h5.282V44.96c-.001-14.28-6.707-20.457-19.103-20.457h.002zm43.29-.101c-5.385 0-10.262 1.519-14.53 4.152l1.423 4.355c4.06-2.229 7.417-3.545 12.802-3.545 11.38 0 11.99 6.988 11.99 17.825-3.659-2.632-8.739-3.444-12.396-3.444-9.856 0-17.375 5.063-17.375 14.178 0 8.304 5.69 13.57 14.124 13.57 8.33 0 12.801-3.747 15.646-7.595v6.988h5.284V42.632c-.002-11.546-4.27-18.23-16.97-18.23h.002zm11.684 34.938c-2.54 3.342-6.3 7.191-14.021 7.191-5.69 0-10.16-3.24-10.16-8.912 0-6.684 6.299-9.52 12.294-9.52 4.673 0 8.534 1.215 11.887 3.646v7.595zm35.062 4.76c-1.626 1.215-4.268 2.431-7.316 2.431-7.316 0-10.262-4.861-10.262-13.777V30.276h18.39v-4.96h-18.391V12.658h-5.284V53.57c0 11.647 4.166 17.925 14.326 17.925 4.37 0 8.128-1.519 10.262-3.24l-1.725-4.153zM295.547 53.708c-4.979 0-9.244 3.241-9.244 8.61 0 5.976 4.267 9.215 9.244 9.215 4.369 0 8.64-3.24 8.64-9.214-.004-5.37-4.271-8.611-8.64-8.611z"></path>
        <path data-v-5c9875d0="" fill="#FFF" d="M16.375 38.277c0-1 1.322-1.999 3.558-1.999 4.983 0 9.966 2.398 12.609 4.198l5.694-10.595c-3.05-2.599-8.948-6.097-19.218-6.097-9.762 0-17.897 4.997-17.897 14.693 0 16.392 24.2 13.394 24.2 18.187 0 1.3-1.22 1.999-3.459 1.999-4.576 0-11.796-2.9-14.643-5.598L0 62.861c2.136 3.198 11.185 8.296 20.845 8.296 12.202 0 19.726-6.097 19.726-15.193.004-15.988-24.196-12.989-24.196-17.687zm59.358-14.493c-5.593 0-10.168 2.1-12.71 4.598v-3.396H47.77v64.968h15.253V69.76c2.135.9 5.39 1.4 8.541 1.4 14.846 0 24.608-10.695 24.608-24.391 0-13.29-8.135-22.986-20.44-22.986zM70.14 57.168c-3.253 0-4.88-.4-7.117-1.7V41.775c2.542-2.799 4.982-3.994 7.931-3.994 5.793 0 8.948 4.098 8.948 9.295 0 5.494-3.152 10.092-9.762 10.092zm51.612-33.384c-6.406 0-13.32 2.199-16.981 4.398l3.762 10.895c2.847-1.1 6.304-2.799 11.693-2.799 4.064 0 6.61 2.299 6.305 7.696-1.424-1.1-4.88-2.498-8.948-2.498-9.05 0-16.473 4.697-16.473 14.892 0 9.094 6.203 14.193 14.439 14.193 4.983 0 9.762-1.599 11.999-4.697v4.098h13.216V42.875c0-12.195-5.081-19.09-19.012-19.09zm4.78 31.984c-.916 1.2-2.747 2.295-5.794 2.295-2.542 0-4.372-1.2-4.372-3.198 0-2.199 1.83-3.4 4.372-3.4s4.373.5 5.793 1.5v2.803zm40.139 1.4c-2.034 0-2.948-2.3-2.948-4.998V38.976h12.71v-13.99h-12.71V12.493H148.47V52.87c0 11.494 3.864 18.29 14.236 18.29 6.812 0 12.303-2.498 15.353-5.098l-4.575-11.495c-1.627 1.201-3.559 2.6-6.813 2.6zm19.475 12.794h15.252V24.986h-15.252v44.976zm7.93-68.967c-4.982 0-9.25 3.2-9.25 8.499 0 5.897 4.27 9.093 9.25 9.093 4.373 0 8.647-3.198 8.647-9.093-.003-5.3-4.274-8.499-8.646-8.499zm35.042 22.79c-6.406 0-13.32 2.198-16.98 4.397l3.76 10.895c2.847-1.1 6.304-2.799 11.693-2.799 4.064 0 6.61 2.299 6.305 7.696-1.424-1.1-4.882-2.498-8.949-2.498-9.05 0-16.472 4.697-16.472 14.892 0 9.094 6.203 14.193 14.439 14.193 4.982 0 9.761-1.599 11.999-4.697v4.098h13.22V42.875c0-12.195-5.087-19.09-19.015-19.09zm4.78 31.983c-.916 1.2-2.746 2.295-5.793 2.295-2.542 0-4.372-1.2-4.372-3.198 0-2.199 1.83-3.4 4.372-3.4s4.372.5 5.793 1.5v2.803zm39.598 1.4c-1.525 0-2.542-1.7-2.542-5.797V0H255.7v57.072c0 9.795 4.271 14.093 11.389 14.093 6.202 0 10.473-1.8 13.422-4.198l-3.054-11.399c-1.42.9-2.437 1.6-3.963 1.6h.002z"></path>
    </g>
</svg>