<svg data-v-2db9ff64="" xmlns="http://www.w3.org/2000/svg" width="32" height="36" viewBox="0 0 32 36" svg-inline="" src="../assets/logo-small.svg" role="presentation" focusable="false" className="logo-small">
    <g data-v-2db9ff64="" fill="none" fill-rule="evenodd">
        <path data-v-2db9ff64="" fill="#2CD79A" d="M14.29 0C8.76 0 3.92 1.302.692 4.52l2.842 4.825c2.92-2.68 6.3-3.6 9.91-3.6 6.222 0 11.83 4.979 11.83 12.256 0 7.583-5.608 12.255-12.445 12.255a13.12 13.12 0 01-9.733-4.249L.025 30.22 0 30.256C2.92 34.01 7.989 36 13.29 36c10.985 0 18.513-7.123 18.513-18C31.805 7.967 24.432 0 14.29 0z"></path>
        <path data-v-2db9ff64="" fill="#FFF" d="M13.617 22.954c-2.04 0-5.256-1.304-6.525-2.518l-3.218 4.406c.952 1.439 4.985 3.732 9.29 3.732 5.438 0 8.791-2.743 8.791-6.834 0-7.194-10.785-5.845-10.785-7.958 0-.45.59-.9 1.586-.9 2.22 0 4.441 1.08 5.618 1.889l2.539-4.766c-1.36-1.168-3.988-2.74-8.565-2.74-4.35 0-7.975 2.248-7.975 6.608 0 7.374 10.785 6.025 10.785 8.183 0 .584-.544.898-1.541.898z"></path>
    </g>
</svg>