<svg xmlns="http://www.w3.org/2000/svg" width="16" height="16" viewBox="0 0 16 16">
    <path fill="#FFF" fill-rule="evenodd" d="M4.222 4.697l.065.064c.21.207.415.413.62.62.214.21.428.425.638.635l6.453 6.457v1.59c0 .204.004.408 0 .612-.006.43-.143.916-.503 1.18-.383.284-.9.104-1.251-.138-.089-.062-.17-.138-.253-.21l-1.167-.996a1892.14 1892.14 0 0 1-3.216-2.748l-.543-.464H1.35a.351.351 0 0 1-.346-.345v-.01c-.007-.24 0-.48 0-.718V5.043a.351.351 0 0 1 .346-.346h2.873zM7.28 2.813l.674-.573L9.505.92c.253-.215.501-.433.756-.644.131-.109.297-.174.46-.223.335-.1.733-.072.982.2.293.32.295.763.295 1.174v6.105L7.575 3.107l-.183-.185a23.966 23.966 0 0 1-.112-.11zM16 13.349l-.002.058-.001.007a1.28 1.28 0 0 1-.03.109c-.001.007-.005.012-.007.019.004.003-.001.008-.003.015a.052.052 0 0 0-.007.014l.003-.012a1.417 1.417 0 0 1-.06.11l-.03.046-.03.04-.01.012-.037.04c-.005.005-.029.03-.045.043l-.017.014-.043.028a1.18 1.18 0 0 1-.07.041c-.006.002-.013.004-.023.009l-.05.017c-.033.01-.065.021-.1.028l-.05.01c-.012.002-.017.006-.019.007a.758.758 0 0 1-.074-.003c-.02 0-.043.002-.065 0l-.016-.005c-.017-.004-.036-.007-.053-.012-.037-.01-.07-.021-.104-.032-.012-.003-.019-.007-.024-.007l-.043-.024a1.253 1.253 0 0 1-.081-.048l-.014-.009-.024-.017c-.067-.06-.13-.125-.193-.19-1.062-1.058-2.12-2.12-3.18-3.18l-.119-.12-.345-.344-.344-.345c-.788-.788-1.577-1.576-2.365-2.366C7.27 6.249 6.217 5.194 5.162 4.139a34.607 34.607 0 0 0-.251-.252l-.245-.244-.22-.22-.026-.026-.033-.033-1.405-1.406c-.258-.26-.518-.518-.777-.778a.918.918 0 0 1-.055-.06c.009.007-.031-.047-.041-.063L2.072 1 2.064.97C2.057.95 2.05.93 2.044.908c-.011-.035-.023-.07-.03-.104-.004-.014-.01-.028-.01-.042C2.003.728 2 .697 2 .664l.003-.057v-.01c0-.004.002-.006.004-.009.009-.036.017-.073.03-.11L2.05.44c.002-.002.002-.005.003-.007.031-.059.064-.116.102-.17-.005.009.038-.046.05-.059l.047-.052c.003-.001.008-.003.015-.008.014-.009.028-.02.043-.028.033-.02.07-.036.102-.055.014-.006.026-.01.04-.014.032-.01.065-.021.1-.03l.05-.01.022-.003h.002C2.653 0 2.672 0 2.693 0c.007 0 .04-.002.069 0l.026.007.053.012c.036.008.069.02.104.031a.08.08 0 0 0 .015.005L3 .077a.826.826 0 0 1 .093.055l.005.004c-.004-.002 0 .002.02.014A.144.144 0 0 0 3.12.15c.073.065.136.132.204.198.129.128.256.258.386.386.922.924.844.845 1.766 1.767l.243.244.172.171.073.073 3.099 3.1 1.625 1.626c.116.114.23.23.345.345l.344.344.847.847c1.06 1.06 2.12 2.123 3.181 3.183.133.133.27.263.4.4l.038.042c.004.003.01.013.017.022l.01.017c.011.016.018.032.027.047.01.017.032.038.032.06 0 .004.006.01.007.015.009.026.02.05.026.076.01.035.019.07.026.106 0 .005.003.013.005.022a.1.1 0 0 0 .002.02c.002.023.005.055.005.087z"/>
</svg>