<svg xmlns="http://www.w3.org/2000/svg" width="16" height="16" viewBox="0 0 16 16">
    <path fill="#FFF" fill-rule="evenodd" d="M11.998 14.675c-.006.43-.143.916-.503 1.18-.383.284-.9.104-1.251-.138-.089-.062-.17-.138-.253-.21l-1.167-.996a1892.14 1892.14 0 0 1-3.216-2.748l-.543-.464H1.35a.351.351 0 0 1-.346-.345v-.01c-.007-.24 0-.48 0-.718V5.043a.351.351 0 0 1 .346-.346h3.713l.045-.038 1.153-.981L7.954 2.24 9.505.92c.253-.215.501-.433.756-.644.131-.109.297-.174.46-.223.335-.1.733-.072.982.2.293.32.295.763.295 1.174v12.636c0 .204.004.408 0 .612z"/>
</svg>