<svg data-v-2f32af68="" xmlns="http://www.w3.org/2000/svg" width="24" height="18" viewBox="0 0 24 18" svg-inline="" src="../assets/screenshare.svg" role="presentation" focusable="false" class="screen-share pointer has-tooltip" data-original-title="null"><g data-v-2f32af68="" fill="#ff2631" fill-rule="evenodd"><path data-v-2f32af68="" fill-rule="nonzero" d="M17 16l-1.3-1.3H21a1.7 1.7 0 001.7-1.7V3A1.7 1.7 0 0021 1.3H3A1.7 1.7 0 001.3 3v10A1.7 1.7 0 003 14.7h5.3L7 16H3a3 3 0 01-3-3V3a3 3 0 013-3h18a3 3 0 013 3v10a3 3 0 01-3 3h-4z"></path><path data-v-2f32af68="" d="M12 13l5 5H7z"></path></g></svg>