<svg data-v-2f32af68="" xmlns="http://www.w3.org/2000/svg" width="16" height="22" viewBox="0 0 16 22" svg-inline="" src="../assets/stopaudio-0.svg" role="presentation" focusable="false" class="stopaudio pointer has-tooltip" data-original-title="null"><g data-v-2f32af68="" fill="#FFF" fill-rule="evenodd"><path data-v-2f32af68="" fill-rule="nonzero" d="M8.727 20.571h2.182a.72.72 0 01.727.715.721.721 0 01-.727.714H5.091a.721.721 0 01-.727-.714.72.72 0 01.727-.715h2.182v-2.896c-3.268-.357-5.818-3.086-5.818-6.39V8.43a.72.72 0 01.727-.715c.401 0 .727.32.727.715v2.857c0 2.757 2.284 5 5.091 5 2.807 0 5.09-2.243 5.09-5V8.429c0-.395.327-.715.728-.715a.72.72 0 01.727.715v2.857c0 3.303-2.55 6.032-5.818 6.389v2.896zM8 14.857c-2.004 0-3.636-1.601-3.636-3.571V3.57C4.364 1.603 5.996 0 8 0c2.006 0 3.636 1.603 3.636 3.571v7.715c0 1.97-1.63 3.571-3.636 3.571zM8 1.43c-1.203 0-2.182.961-2.182 2.142v7.715c0 1.181.98 2.143 2.182 2.143 1.203 0 2.182-.962 2.182-2.143V3.57c0-1.181-.98-2.142-2.182-2.142z"></path><path data-v-2f32af68="" d="M15.273 18.143a.737.737 0 01-.515-.209L.212 3.65a.706.706 0 010-1.01.737.737 0 011.029 0l14.545 14.285a.706.706 0 010 1.01.731.731 0 01-.513.209z"></path></g></svg>