<svg data-v-2f32af68="" xmlns="http://www.w3.org/2000/svg" width="25" height="21" viewBox="0 0 25 21" svg-inline="" src="../assets/stopvideo-0.svg" role="presentation" focusable="false" class="stopvideo pointer" data-original-title="null"><g data-v-2f32af68="" fill="#ff2631" fill-rule="evenodd"><path data-v-2f32af68="" fill-rule="nonzero" d="M15.432 3H5.012C3.348 3 2 4.371 2 6.063v9.874C2 17.63 3.348 19 5.012 19h10.42c1.663 0 3.012-1.371 3.012-3.063v-1.225l5.68 2.934c.186.097.41.089.588-.023a.615.615 0 00.288-.522V4.893a.615.615 0 00-.288-.522.594.594 0 00-.588-.023l-5.68 2.934V6.057C18.44 4.367 17.093 3 15.432 3zm1.807 12.937c0 1.015-.81 1.838-1.807 1.838H5.012c-.998 0-1.807-.823-1.807-1.838V6.063c0-1.015.809-1.838 1.807-1.838h10.42c.998 0 1.807.823 1.807 1.838v9.874zm6.553-10.046V16.11l-5.348-2.757V8.657l5.348-2.766z"></path><path data-v-2f32af68="" d="M20.273 21a.732.732 0 01-.515-.211L.213 1.236a.722.722 0 010-1.024.73.73 0 011.028 0l19.546 19.553A.722.722 0 0120.273 21z"></path></g></svg>