<svg data-v-9deb956c="" xmlns="http://www.w3.org/2000/svg" width="80" height="80" viewBox="0 0 80 80" svg-inline="" src="../assets/done.svg" role="presentation" focusable="false" class="done">
    <g data-v-9deb956c="" fill="#2CD79A" fill-rule="evenodd">
        <path data-v-9deb956c="" d="M58.224 25.635L33.764 49.74l-10.99-10.828a2.239 2.239 0 00-3.126 0 2.154 2.154 0 000 3.08L32.15 54.308c.018.021.247.232.356.303.86.59 2.053.507 2.82-.25.025-.021 8.7-8.57 26.027-25.645a2.156 2.156 0 000-3.082c-.434-.424-1-.635-1.566-.635-.566 0-1.129.21-1.562.635z"></path>
        <path data-v-9deb956c="" fill-rule="nonzero" d="M40 80C17.909 80 0 62.091 0 40S17.909 0 40 0s40 17.909 40 40-17.909 40-40 40zm0-2.162c20.897 0 37.838-16.94 37.838-37.838 0-20.897-16.94-37.838-37.838-37.838C19.103 2.162 2.162 19.102 2.162 40c0 20.897 16.94 37.838 37.838 37.838z"></path>
    </g>
</svg>