<svg data-v-2f32af68="" xmlns="http://www.w3.org/2000/svg" width="24" height="24" viewBox="0 0 24 24" svg-inline="" src="../assets/support.svg" role="presentation" focusable="false" class="support has-tooltip" data-original-title="null"><g data-v-2f32af68="" fill="#FFF" fill-rule="evenodd"><path data-v-2f32af68="" fill-rule="nonzero" d="M12 0C5.383 0 0 5.383 0 12s5.383 12 12 12 12-5.383 12-12S18.617 0 12 0zm0 22.688C6.107 22.688 1.312 17.893 1.312 12 1.312 6.107 6.107 1.312 12 1.312c5.893 0 10.688 4.795 10.688 10.688 0 5.893-4.795 10.688-10.688 10.688z"></path><path data-v-2f32af68="" d="M8 8.69C8.102 6.636 9.442 5 12.056 5 14.4 5 16 6.484 16 8.443c0 1.493-.753 2.549-1.944 3.281-1.182.713-1.516 1.246-1.516 2.245v.618h-1.628v-.875c-.01-1.255.586-2.111 1.86-2.891 1.08-.676 1.498-1.275 1.498-2.292 0-1.18-.893-2.045-2.28-2.045-1.404 0-2.297.846-2.4 2.206H8zM11.851 19c-.753 0-1.293-.552-1.293-1.322 0-.78.54-1.332 1.293-1.332.754 0 1.284.552 1.284 1.332 0 .77-.53 1.322-1.284 1.322z"></path></g></svg>