<svg data-v-2f32af68="" data-v-261ef19f="" xmlns="http://www.w3.org/2000/svg" width="20" height="16" viewBox="0 0 20 16" svg-inline="" src="../assets/users.svg" role="presentation" focusable="false"><path data-v-2f32af68="" data-v-261ef19f="" fill="#FFF" d="M0 16v-1.708c0-.962.337-1.873.972-2.637C1.85 10.603 3.162 10 4.573 10h2.854a4.77 4.77 0 012.5.702c1.298.8 2.073 2.141 2.073 3.59V16h-1.478v-1.708c0-1.602-1.389-2.904-3.095-2.904H4.573c-1.706 0-3.095 1.302-3.095 2.904V16H0zm15.637-5C18.043 11 20 13.092 20 15.664V16h-1.53v-.336c0-1.67-1.27-3.028-2.833-3.028H12.96c-.052 0-.104 0-.156.004a.725.725 0 01-.563-.219.849.849 0 01-.24-.595c0-.435.323-.795.736-.82A3.97 3.97 0 0112.96 11h2.678zM14.5 10C12.57 10 11 8.43 11 6.5S12.57 3 14.5 3 18 4.57 18 6.5 16.43 10 14.5 10zm0-5.527A2.03 2.03 0 0012.473 6.5 2.03 2.03 0 0014.5 8.527 2.03 2.03 0 0016.527 6.5 2.03 2.03 0 0014.5 4.473zM5.5 9A4.505 4.505 0 011 4.5C1 2.019 3.019 0 5.5 0S10 2.019 10 4.5 7.981 9 5.5 9zm0-7.495A2.998 2.998 0 002.505 4.5 2.998 2.998 0 005.5 7.495 2.998 2.998 0 008.495 4.5 2.998 2.998 0 005.5 1.505z"></path></svg>