<svg data-v-2f32af68="" xmlns="http://www.w3.org/2000/svg" width="24" height="18" viewBox="0 0 24 18" svg-inline="" src="../assets/youtube.svg" role="presentation" focusable="false" class="youtube pointer has-tooltip" data-original-title="null" aria-describedby="tooltip_pzhhc6chiw"><g data-v-2f32af68="" fill="#FFF"><path data-v-2f32af68="" d="M21.015 1.794c-.575-.168-2.105-.308-4.17-.393a122.224 122.224 0 00-4.432-.1 76.577 76.577 0 00-1.926.011c-1.136.016-2.273.044-3.33.087-2.068.085-3.599.222-4.173.387-.583.169-1.054.676-1.221 1.348-.136.542-.246 1.358-.324 2.356-.06.766-.1 1.592-.122 2.418A53.56 53.56 0 001.3 9.004a53.56 53.56 0 00.139 3.514c.078.999.188 1.814.324 2.356.167.667.639 1.172 1.22 1.34.576.165 2.106.302 4.173.387a124.146 124.146 0 004.43.097 77.784 77.784 0 001.927-.01c1.137-.016 2.274-.044 3.332-.087 2.068-.085 3.598-.222 4.173-.387.582-.168 1.053-.674 1.22-1.338.136-.543.245-1.359.324-2.358a53.774 53.774 0 00.138-3.512c0-.052 0-.153-.003-.296a54.762 54.762 0 00-.138-3.22c-.078-.998-.187-1.814-.32-2.358-.169-.665-.64-1.17-1.224-1.338zM23.5 2.818c.494 2.004.5 6.186.5 6.186s0 4.183-.5 6.186c-.279 1.108-1.087 1.974-2.122 2.273C19.508 18 12 18 12 18s-7.505 0-9.376-.537C1.589 17.165.78 16.299.502 15.19 0 13.187 0 9.004 0 9.004s0-4.182.502-6.186C.778 1.706 1.587.837 2.624.538 4.493 0 12 0 12 0s7.505 0 9.378.546c1.035.299 1.843 1.164 2.122 2.272z"></path><path data-v-2f32af68="" d="M10 13V5l6 4z"></path></g></svg>