<svg data-v-6a2f6b36="" xmlns="http://www.w3.org/2000/svg" width="160" height="36" viewBox="0 0 160 36" svg-inline="" src="../assets/youtubelogo.svg" role="presentation" focusable="false" class="logo"><g data-v-6a2f6b36="" fill="none" fill-rule="evenodd"><path data-v-6a2f6b36="" fill="red" d="M49.953 5.909c-.593-2.167-2.311-3.86-4.51-4.444C41.46.397 25.508.397 25.508.397S9.55.397 5.577 1.448c-2.205.586-3.924 2.287-4.51 4.461C0 9.828 0 18.009 0 18.009s0 8.18 1.067 12.099c.591 2.168 2.31 3.86 4.51 4.444 3.977 1.05 19.93 1.05 19.93 1.05s15.959 0 19.936-1.05c2.199-.585 3.917-2.277 4.51-4.444 1.062-3.919 1.062-12.1 1.062-12.1s-.012-8.18-1.062-12.099z"></path><path data-v-6a2f6b36="" fill="#FFF" d="M20.405 25.548l13.258-7.54-13.258-7.539z"></path><path data-v-6a2f6b36="" fill="#282828" fill-rule="nonzero" d="M74.054 32.425a5.456 5.456 0 01-2.155-3.128 20.217 20.217 0 01-.638-5.64v-3.203c-.058-1.931.192-3.86.739-5.715a5.69 5.69 0 012.28-3.145 7.474 7.474 0 014.065-.988c1.655 0 2.98.335 3.977 1.005a5.792 5.792 0 012.192 3.145c.516 1.855.75 3.775.693 5.698v3.203a19.374 19.374 0 01-.676 5.66 5.565 5.565 0 01-2.188 3.129c-1.013.656-2.382.986-4.107.988-1.78 0-3.175-.336-4.182-1.01zm5.652-3.451c.28-.715.42-1.888.42-3.522v-6.848c0-1.585-.139-2.74-.42-3.472a1.505 1.505 0 00-1.478-1.096c-.678 0-1.27.45-1.44 1.096-.282.733-.42 1.887-.42 3.472v6.865c0 1.63.14 2.804.42 3.521.17.651.775 1.1 1.457 1.08a1.496 1.496 0 001.461-1.096zm71.836-5.268v1.105a29.31 29.31 0 00.126 3.178 2.98 2.98 0 00.53 1.548 1.52 1.52 0 001.238.484c.65.06 1.27-.283 1.554-.861.28-.574.431-1.532.454-2.876l4.342.253c.029.262.041.526.038.79 0 2.036-.56 3.553-1.68 4.552-1.134 1.005-2.73 1.51-4.8 1.51-2.478 0-4.22-.766-5.216-2.3-.995-1.536-1.495-3.907-1.495-7.118v-3.848c0-3.31.517-5.724 1.55-7.242 1.033-1.517 2.795-2.27 5.287-2.259 1.727 0 3.053.312 3.977.935a5.007 5.007 0 011.952 2.897 20.7 20.7 0 01.563 5.466v3.774l-8.42.012zm.639-9.273a2.975 2.975 0 00-.513 1.527c-.1 1.07-.142 2.145-.126 3.22v1.58h3.683v-1.58a26.477 26.477 0 00-.147-3.22 3.049 3.049 0 00-.529-1.548 1.478 1.478 0 00-1.184-.446 1.439 1.439 0 00-1.184.467z"></path><path data-v-6a2f6b36="" fill="#282828" d="M61.791 23.292L56.063 2.913h5.018l2.008 9.236c.512 2.279.889 4.22 1.13 5.826h.146c.171-1.15.55-3.081 1.134-5.793l2.079-9.273h4.997l-5.8 20.38v9.798h-4.984v-9.795zm39.664-12.256v22.05h-3.943l-.42-2.697h-.11c-1.069 2.036-2.674 3.055-4.816 3.058-1.484 0-2.579-.48-3.284-1.44-.706-.96-1.058-2.458-1.058-4.494V11.036h5.039v16.18a4.9 4.9 0 00.328 2.101c.202.409.635.657 1.096.63a2.26 2.26 0 001.26-.415 2.47 2.47 0 00.894-1.005V11.036h5.014zm25.823 0v22.05h-3.94l-.42-2.697h-.104c-1.07 2.036-2.675 3.055-4.817 3.058-1.487 0-2.579-.48-3.284-1.44-.706-.96-1.058-2.458-1.058-4.494V11.036h5.039v16.18a4.9 4.9 0 00.328 2.101c.201.41.635.658 1.096.63a2.24 2.24 0 001.26-.415c.388-.244.699-.593.894-1.005V11.036h5.006z"></path><path data-v-6a2f6b36="" fill="#282828" d="M115.133 6.902h-4.998v26.185h-4.926V6.902h-4.997V2.913h14.92z"></path><path data-v-6a2f6b36="" fill="#282828" fill-rule="nonzero" d="M143.941 14.557c-.302-1.386-.798-2.396-1.478-3.016a3.998 3.998 0 00-2.81-.935 4.699 4.699 0 00-2.59.773 5.304 5.304 0 00-1.86 2.028h-.034V1.796h-4.855v31.29h4.162l.508-2.068h.109a4.26 4.26 0 001.751 1.759 5.23 5.23 0 002.591.65 3.97 3.97 0 003.759-2.322c.803-1.542 1.205-3.956 1.205-7.242v-3.488a28.645 28.645 0 00-.458-5.818zm-4.62 8.992a27.322 27.322 0 01-.2 3.774 4.065 4.065 0 01-.673 1.94 1.572 1.572 0 01-1.26.576 2.38 2.38 0 01-1.15-.286 2.195 2.195 0 01-.84-.865V16.18a3.098 3.098 0 01.873-1.473c.357-.36.843-.566 1.353-.575.472-.02.92.205 1.184.592.348.611.548 1.294.584 1.994.126 1.326.181 2.658.163 3.99l-.033 2.842z"></path></g></svg>